<mxfile host="app.diagrams.net" agent="Mozilla/5.0 (Macintosh; Intel Mac OS X 10_15_7) AppleWebKit/537.36 (KHTML, like Gecko) Chrome/129.0.0.0 Safari/537.36" version="24.7.14">
  <diagram name="Page-1" id="74e2e168-ea6b-b213-b513-2b3c1d86103e">
    <mxGraphModel dx="1196" dy="950" grid="1" gridSize="10" guides="1" tooltips="1" connect="1" arrows="1" fold="1" page="1" pageScale="1" pageWidth="827" pageHeight="1169" background="none" math="0" shadow="0">
      <root>
        <mxCell id="0" />
        <mxCell id="1" parent="0" />
        <mxCell id="77e6c97f196da883-1" value="Normal Images Request flow" style="swimlane;html=1;childLayout=stackLayout;startSize=20;rounded=0;shadow=0;labelBackgroundColor=none;strokeWidth=1;fontFamily=Verdana;fontSize=8;align=center;" parent="1" vertex="1">
          <mxGeometry x="11" y="20" width="806" height="810" as="geometry" />
        </mxCell>
        <mxCell id="77e6c97f196da883-2" value="Browser" style="swimlane;html=1;startSize=20;" parent="77e6c97f196da883-1" vertex="1">
          <mxGeometry y="20" width="166" height="790" as="geometry" />
        </mxCell>
        <mxCell id="gTiBbDLUTEHt-P025S_j-1" value="&lt;span style=&quot;font-family: Verdana; font-size: 8px;&quot;&gt;Page request&amp;nbsp;&lt;/span&gt;&lt;div&gt;&lt;span style=&quot;font-family: Verdana; font-size: 8px;&quot;&gt;to DEV&lt;/span&gt;&lt;/div&gt;" style="strokeWidth=2;html=1;shape=mxgraph.flowchart.start_2;whiteSpace=wrap;" parent="77e6c97f196da883-2" vertex="1">
          <mxGeometry x="41.5" y="56" width="77" height="77" as="geometry" />
        </mxCell>
        <mxCell id="gTiBbDLUTEHt-P025S_j-102" style="edgeStyle=orthogonalEdgeStyle;rounded=0;orthogonalLoop=1;jettySize=auto;html=1;entryX=0.5;entryY=0;entryDx=0;entryDy=0;fontFamily=Helvetica;fontSize=12;fontColor=default;" parent="77e6c97f196da883-2" source="gTiBbDLUTEHt-P025S_j-18" target="gTiBbDLUTEHt-P025S_j-90" edge="1">
          <mxGeometry relative="1" as="geometry" />
        </mxCell>
        <mxCell id="gTiBbDLUTEHt-P025S_j-18" value="HTML" style="strokeWidth=2;html=1;shape=mxgraph.flowchart.document2;whiteSpace=wrap;size=0.25;" parent="77e6c97f196da883-2" vertex="1">
          <mxGeometry x="30" y="236" width="100" height="60" as="geometry" />
        </mxCell>
        <mxCell id="gTiBbDLUTEHt-P025S_j-96" value="" style="group" parent="77e6c97f196da883-2" vertex="1" connectable="0">
          <mxGeometry x="11" y="330" width="140" height="70" as="geometry" />
        </mxCell>
        <mxCell id="gTiBbDLUTEHt-P025S_j-90" value="" style="verticalLabelPosition=bottom;verticalAlign=top;html=1;shape=hexagon;perimeter=hexagonPerimeter2;arcSize=6;size=0.27;pointerEvents=0;align=center;fontFamily=Helvetica;fontSize=12;fontColor=default;fillColor=none;gradientColor=none;" parent="gTiBbDLUTEHt-P025S_j-96" vertex="1">
          <mxGeometry x="-1" width="140" height="70" as="geometry" />
        </mxCell>
        <mxCell id="gTiBbDLUTEHt-P025S_j-95" value="&lt;div&gt;&lt;span style=&quot;background-color: initial;&quot;&gt;Parse DOM&lt;/span&gt;&lt;br&gt;&lt;/div&gt;&lt;div&gt;&amp;amp; Hydrate&lt;/div&gt;" style="whiteSpace=wrap;html=1;pointerEvents=0;align=center;verticalAlign=top;fontFamily=Helvetica;fontSize=12;fontColor=default;fillColor=none;gradientColor=none;strokeColor=none;" parent="gTiBbDLUTEHt-P025S_j-96" vertex="1">
          <mxGeometry x="29" y="15" width="80" height="40" as="geometry" />
        </mxCell>
        <mxCell id="gTiBbDLUTEHt-P025S_j-99" value="" style="edgeStyle=orthogonalEdgeStyle;rounded=0;orthogonalLoop=1;jettySize=auto;html=1;fontFamily=Helvetica;fontSize=12;fontColor=default;" parent="77e6c97f196da883-2" source="gTiBbDLUTEHt-P025S_j-90" target="gTiBbDLUTEHt-P025S_j-98" edge="1">
          <mxGeometry relative="1" as="geometry" />
        </mxCell>
        <mxCell id="gTiBbDLUTEHt-P025S_j-101" value="" style="group;rounded=1;" parent="77e6c97f196da883-2" vertex="1" connectable="0">
          <mxGeometry x="6" y="422" width="150" height="60" as="geometry" />
        </mxCell>
        <mxCell id="gTiBbDLUTEHt-P025S_j-98" value="" style="whiteSpace=wrap;html=1;verticalAlign=top;fillColor=none;arcSize=6;pointerEvents=0;gradientColor=none;" parent="gTiBbDLUTEHt-P025S_j-101" vertex="1">
          <mxGeometry x="-1" width="150" height="60" as="geometry" />
        </mxCell>
        <mxCell id="gTiBbDLUTEHt-P025S_j-100" value="&lt;span style=&quot;color: rgb(0, 0, 0); font-family: Helvetica; font-size: 12px; font-style: normal; font-variant-ligatures: normal; font-variant-caps: normal; font-weight: 400; letter-spacing: normal; orphans: 2; text-align: left; text-indent: 0px; text-transform: none; widows: 2; word-spacing: 0px; -webkit-text-stroke-width: 0px; white-space: nowrap; background-color: rgb(251, 251, 251); text-decoration-thickness: initial; text-decoration-style: initial; text-decoration-color: initial; display: inline !important; float: none;&quot;&gt;Browser finds image tag&lt;/span&gt;&lt;div style=&quot;forced-color-adjust: none; color: rgb(0, 0, 0); font-family: Helvetica; font-size: 12px; font-style: normal; font-variant-ligatures: normal; font-variant-caps: normal; font-weight: 400; letter-spacing: normal; orphans: 2; text-align: left; text-indent: 0px; text-transform: none; widows: 2; word-spacing: 0px; -webkit-text-stroke-width: 0px; white-space: nowrap; background-color: rgb(251, 251, 251); text-decoration-thickness: initial; text-decoration-style: initial; text-decoration-color: initial;&quot;&gt;and triggers the request&lt;/div&gt;" style="text;whiteSpace=wrap;html=1;fontFamily=Helvetica;fontSize=12;fontColor=default;" parent="gTiBbDLUTEHt-P025S_j-101" vertex="1">
          <mxGeometry x="9" y="10" width="130" height="40" as="geometry" />
        </mxCell>
        <mxCell id="gTiBbDLUTEHt-P025S_j-105" value="Rendered page" style="strokeWidth=2;html=1;shape=mxgraph.flowchart.display;whiteSpace=wrap;pointerEvents=0;align=center;verticalAlign=middle;fontFamily=Helvetica;fontSize=12;fontColor=default;fillColor=none;gradientColor=none;" parent="77e6c97f196da883-2" vertex="1">
          <mxGeometry x="33" y="620" width="100" height="60" as="geometry" />
        </mxCell>
        <mxCell id="gTiBbDLUTEHt-P025S_j-112" value="END" style="strokeWidth=2;html=1;shape=mxgraph.flowchart.terminator;whiteSpace=wrap;rounded=1;shadow=0;align=center;verticalAlign=middle;fontFamily=Verdana;fontSize=8;fontColor=default;fontStyle=1;labelBackgroundColor=none;fillColor=default;" parent="77e6c97f196da883-2" vertex="1">
          <mxGeometry x="51.5" y="732.2" width="63" height="37.8" as="geometry" />
        </mxCell>
        <mxCell id="gTiBbDLUTEHt-P025S_j-113" style="edgeStyle=orthogonalEdgeStyle;rounded=1;orthogonalLoop=1;jettySize=auto;html=1;exitX=0.5;exitY=1;exitDx=0;exitDy=0;exitPerimeter=0;entryX=0.5;entryY=0;entryDx=0;entryDy=0;entryPerimeter=0;fontFamily=Verdana;fontSize=8;fontColor=default;fontStyle=1;labelBackgroundColor=none;" parent="77e6c97f196da883-2" source="gTiBbDLUTEHt-P025S_j-105" target="gTiBbDLUTEHt-P025S_j-112" edge="1">
          <mxGeometry relative="1" as="geometry" />
        </mxCell>
        <mxCell id="77e6c97f196da883-3" value="Frontdoor" style="swimlane;html=1;startSize=20;" parent="77e6c97f196da883-1" vertex="1">
          <mxGeometry x="166" y="20" width="160" height="790" as="geometry" />
        </mxCell>
        <mxCell id="77e6c97f196da883-11" value="Rewrite to&amp;nbsp;&lt;div&gt;Rendering DEV&lt;/div&gt;" style="rounded=1;whiteSpace=wrap;html=1;shadow=0;labelBackgroundColor=none;strokeWidth=1;fontFamily=Verdana;fontSize=8;align=center;" parent="77e6c97f196da883-3" vertex="1">
          <mxGeometry x="30" y="64.5" width="100" height="60" as="geometry" />
        </mxCell>
        <mxCell id="gTiBbDLUTEHt-P025S_j-32" value="Rewrite to&amp;nbsp;&lt;div&gt;Rendering DEV&lt;/div&gt;" style="rounded=1;whiteSpace=wrap;html=1;shadow=0;labelBackgroundColor=none;strokeWidth=1;fontFamily=Verdana;fontSize=8;align=center;" parent="77e6c97f196da883-3" vertex="1">
          <mxGeometry x="30" y="422" width="100" height="60" as="geometry" />
        </mxCell>
        <mxCell id="gTiBbDLUTEHt-P025S_j-37" value="Media CDN Image" style="strokeWidth=2;html=1;shape=mxgraph.flowchart.document2;whiteSpace=wrap;size=0.25;" parent="77e6c97f196da883-3" vertex="1">
          <mxGeometry x="30" y="547" width="100" height="60" as="geometry" />
        </mxCell>
        <mxCell id="77e6c97f196da883-4" value="Rendering" style="swimlane;html=1;startSize=20;" parent="77e6c97f196da883-1" vertex="1">
          <mxGeometry x="326" y="20" width="160" height="790" as="geometry" />
        </mxCell>
        <mxCell id="77e6c97f196da883-12" value="[[...path]].tsx:&lt;div&gt;getServerSideProps()&lt;/div&gt;" style="rounded=1;whiteSpace=wrap;html=1;shadow=0;labelBackgroundColor=none;strokeWidth=1;fontFamily=Verdana;fontSize=8;align=center;verticalAlign=top;" parent="77e6c97f196da883-4" vertex="1">
          <mxGeometry x="30" y="64.5" width="100" height="141.5" as="geometry" />
        </mxCell>
        <mxCell id="gTiBbDLUTEHt-P025S_j-23" value="URLS to images come from LS" style="ellipse;whiteSpace=wrap;html=1;align=center;newEdgeStyle={&quot;edgeStyle&quot;:&quot;entityRelationEdgeStyle&quot;,&quot;startArrow&quot;:&quot;none&quot;,&quot;endArrow&quot;:&quot;none&quot;,&quot;segment&quot;:10,&quot;curved&quot;:1,&quot;sourcePerimeterSpacing&quot;:0,&quot;targetPerimeterSpacing&quot;:0};treeFolding=1;treeMoving=1;" parent="77e6c97f196da883-4" vertex="1">
          <mxGeometry x="40" y="116" width="80" height="60" as="geometry" />
        </mxCell>
        <mxCell id="gTiBbDLUTEHt-P025S_j-12" style="edgeStyle=orthogonalEdgeStyle;rounded=0;orthogonalLoop=1;jettySize=auto;html=1;entryX=-0.026;entryY=0.503;entryDx=0;entryDy=0;entryPerimeter=0;fillColor=#ffe6cc;strokeColor=#d79b00;" parent="77e6c97f196da883-4" edge="1">
          <mxGeometry relative="1" as="geometry">
            <mxPoint x="130" y="166" as="sourcePoint" />
            <mxPoint x="187.39999999999998" y="166.36450000000002" as="targetPoint" />
          </mxGeometry>
        </mxCell>
        <mxCell id="gTiBbDLUTEHt-P025S_j-14" value="lang" style="edgeLabel;html=1;align=center;verticalAlign=middle;resizable=0;points=[];" parent="gTiBbDLUTEHt-P025S_j-12" vertex="1" connectable="0">
          <mxGeometry x="0.0015" relative="1" as="geometry">
            <mxPoint as="offset" />
          </mxGeometry>
        </mxCell>
        <mxCell id="gTiBbDLUTEHt-P025S_j-13" style="edgeStyle=orthogonalEdgeStyle;rounded=0;orthogonalLoop=1;jettySize=auto;html=1;exitX=0;exitY=0.75;exitDx=0;exitDy=0;entryX=1.024;entryY=0.75;entryDx=0;entryDy=0;entryPerimeter=0;fillColor=#ffe6cc;strokeColor=#d79b00;" parent="77e6c97f196da883-4" edge="1">
          <mxGeometry relative="1" as="geometry">
            <mxPoint x="187.60000000000002" y="185.995" as="sourcePoint" />
            <mxPoint x="130" y="185.995" as="targetPoint" />
          </mxGeometry>
        </mxCell>
        <mxCell id="gTiBbDLUTEHt-P025S_j-15" value="dict" style="edgeLabel;html=1;align=center;verticalAlign=middle;resizable=0;points=[];" parent="gTiBbDLUTEHt-P025S_j-13" vertex="1" connectable="0">
          <mxGeometry x="-0.005" y="-1" relative="1" as="geometry">
            <mxPoint as="offset" />
          </mxGeometry>
        </mxCell>
        <mxCell id="gTiBbDLUTEHt-P025S_j-35" value="Rewrite?" style="strokeWidth=2;html=1;shape=mxgraph.flowchart.decision;whiteSpace=wrap;" parent="77e6c97f196da883-4" vertex="1">
          <mxGeometry x="30" y="402" width="100" height="100" as="geometry" />
        </mxCell>
        <mxCell id="77e6c97f196da883-5" value="CD" style="swimlane;html=1;startSize=20;" parent="77e6c97f196da883-1" vertex="1">
          <mxGeometry x="486" y="20" width="160" height="790" as="geometry" />
        </mxCell>
        <mxCell id="gTiBbDLUTEHt-P025S_j-5" value="LayoutService" style="rounded=1;whiteSpace=wrap;html=1;absoluteArcSize=1;arcSize=14;strokeWidth=2;" parent="77e6c97f196da883-5" vertex="1">
          <mxGeometry x="30" y="64.5" width="100" height="141.5" as="geometry" />
        </mxCell>
        <mxCell id="gTiBbDLUTEHt-P025S_j-10" style="edgeStyle=orthogonalEdgeStyle;rounded=1;orthogonalLoop=1;jettySize=auto;html=1;exitX=0;exitY=0.37;exitDx=0;exitDy=0;entryX=1;entryY=0.5;entryDx=0;entryDy=0;exitPerimeter=0;fillColor=#dae8fc;strokeColor=#6c8ebf;fontColor=#6C8EBF;curved=0;" parent="77e6c97f196da883-5" target="gTiBbDLUTEHt-P025S_j-23" edge="1">
          <mxGeometry relative="1" as="geometry">
            <mxPoint x="30" y="124.96499999999999" as="sourcePoint" />
            <mxPoint x="-30.5" y="125.53150000000001" as="targetPoint" />
          </mxGeometry>
        </mxCell>
        <mxCell id="gTiBbDLUTEHt-P025S_j-11" value="props" style="edgeLabel;html=1;align=center;verticalAlign=middle;resizable=0;points=[];" parent="gTiBbDLUTEHt-P025S_j-10" vertex="1" connectable="0">
          <mxGeometry x="-0.0074" relative="1" as="geometry">
            <mxPoint as="offset" />
          </mxGeometry>
        </mxCell>
        <mxCell id="gTiBbDLUTEHt-P025S_j-40" value="Sitecore Image" style="strokeWidth=2;html=1;shape=mxgraph.flowchart.document2;whiteSpace=wrap;size=0.25;" parent="77e6c97f196da883-5" vertex="1">
          <mxGeometry x="30" y="422" width="100" height="60" as="geometry" />
        </mxCell>
        <mxCell id="77e6c97f196da883-6" value="CM" style="swimlane;html=1;startSize=20;" parent="77e6c97f196da883-1" vertex="1">
          <mxGeometry x="646" y="20" width="160" height="790" as="geometry" />
        </mxCell>
        <mxCell id="gTiBbDLUTEHt-P025S_j-2" style="edgeStyle=orthogonalEdgeStyle;rounded=0;orthogonalLoop=1;jettySize=auto;html=1;entryX=0;entryY=0.5;entryDx=0;entryDy=0;" parent="77e6c97f196da883-1" source="gTiBbDLUTEHt-P025S_j-1" target="77e6c97f196da883-11" edge="1">
          <mxGeometry relative="1" as="geometry" />
        </mxCell>
        <mxCell id="gTiBbDLUTEHt-P025S_j-6" style="edgeStyle=orthogonalEdgeStyle;rounded=0;orthogonalLoop=1;jettySize=auto;html=1;entryX=0;entryY=0.5;entryDx=0;entryDy=0;curved=1;" parent="77e6c97f196da883-1" source="77e6c97f196da883-11" target="77e6c97f196da883-12" edge="1">
          <mxGeometry relative="1" as="geometry" />
        </mxCell>
        <mxCell id="gTiBbDLUTEHt-P025S_j-7" style="edgeStyle=orthogonalEdgeStyle;rounded=1;orthogonalLoop=1;jettySize=auto;html=1;entryX=0;entryY=0.25;entryDx=0;entryDy=0;exitX=0.997;exitY=0.121;exitDx=0;exitDy=0;fillColor=#dae8fc;strokeColor=#6c8ebf;exitPerimeter=0;curved=0;" parent="77e6c97f196da883-1" source="77e6c97f196da883-12" target="gTiBbDLUTEHt-P025S_j-5" edge="1">
          <mxGeometry relative="1" as="geometry" />
        </mxCell>
        <mxCell id="gTiBbDLUTEHt-P025S_j-9" value="route" style="edgeLabel;html=1;align=center;verticalAlign=middle;resizable=0;points=[];" parent="gTiBbDLUTEHt-P025S_j-7" vertex="1" connectable="0">
          <mxGeometry x="-0.3509" y="-1" relative="1" as="geometry">
            <mxPoint x="10" y="-1" as="offset" />
          </mxGeometry>
        </mxCell>
        <mxCell id="gTiBbDLUTEHt-P025S_j-25" style="edgeStyle=orthogonalEdgeStyle;rounded=1;orthogonalLoop=1;jettySize=auto;html=1;entryX=1;entryY=0.5;entryDx=0;entryDy=0;entryPerimeter=0;exitX=0.5;exitY=1;exitDx=0;exitDy=0;curved=0;" parent="77e6c97f196da883-1" source="77e6c97f196da883-12" target="gTiBbDLUTEHt-P025S_j-18" edge="1">
          <mxGeometry relative="1" as="geometry" />
        </mxCell>
        <mxCell id="gTiBbDLUTEHt-P025S_j-36" style="edgeStyle=orthogonalEdgeStyle;rounded=0;orthogonalLoop=1;jettySize=auto;html=1;entryX=0;entryY=0.5;entryDx=0;entryDy=0;entryPerimeter=0;" parent="77e6c97f196da883-1" source="gTiBbDLUTEHt-P025S_j-32" target="gTiBbDLUTEHt-P025S_j-35" edge="1">
          <mxGeometry relative="1" as="geometry" />
        </mxCell>
        <mxCell id="gTiBbDLUTEHt-P025S_j-38" style="edgeStyle=orthogonalEdgeStyle;rounded=1;orthogonalLoop=1;jettySize=auto;html=1;entryX=1;entryY=0.5;entryDx=0;entryDy=0;entryPerimeter=0;exitX=0.5;exitY=1;exitDx=0;exitDy=0;exitPerimeter=0;curved=0;" parent="77e6c97f196da883-1" source="gTiBbDLUTEHt-P025S_j-35" target="gTiBbDLUTEHt-P025S_j-37" edge="1">
          <mxGeometry relative="1" as="geometry" />
        </mxCell>
        <mxCell id="gTiBbDLUTEHt-P025S_j-45" value="Yes" style="edgeLabel;html=1;align=center;verticalAlign=middle;resizable=0;points=[];" parent="gTiBbDLUTEHt-P025S_j-38" vertex="1" connectable="0">
          <mxGeometry x="-0.1243" relative="1" as="geometry">
            <mxPoint x="-21" as="offset" />
          </mxGeometry>
        </mxCell>
        <mxCell id="gTiBbDLUTEHt-P025S_j-43" style="edgeStyle=orthogonalEdgeStyle;rounded=0;orthogonalLoop=1;jettySize=auto;html=1;entryX=0;entryY=0.5;entryDx=0;entryDy=0;entryPerimeter=0;" parent="77e6c97f196da883-1" source="gTiBbDLUTEHt-P025S_j-35" target="gTiBbDLUTEHt-P025S_j-40" edge="1">
          <mxGeometry relative="1" as="geometry" />
        </mxCell>
        <mxCell id="gTiBbDLUTEHt-P025S_j-46" value="No" style="edgeLabel;html=1;align=center;verticalAlign=middle;resizable=0;points=[];" parent="gTiBbDLUTEHt-P025S_j-43" vertex="1" connectable="0">
          <mxGeometry x="-0.3667" y="-1" relative="1" as="geometry">
            <mxPoint as="offset" />
          </mxGeometry>
        </mxCell>
        <mxCell id="gTiBbDLUTEHt-P025S_j-104" style="edgeStyle=orthogonalEdgeStyle;rounded=0;orthogonalLoop=1;jettySize=auto;html=1;exitX=1;exitY=0.5;exitDx=0;exitDy=0;entryX=0;entryY=0.5;entryDx=0;entryDy=0;fontFamily=Helvetica;fontSize=12;fontColor=default;" parent="77e6c97f196da883-1" source="gTiBbDLUTEHt-P025S_j-98" target="gTiBbDLUTEHt-P025S_j-32" edge="1">
          <mxGeometry relative="1" as="geometry" />
        </mxCell>
        <mxCell id="gTiBbDLUTEHt-P025S_j-106" style="edgeStyle=orthogonalEdgeStyle;rounded=1;orthogonalLoop=1;jettySize=auto;html=1;entryX=0.5;entryY=0;entryDx=0;entryDy=0;entryPerimeter=0;fontFamily=Helvetica;fontSize=12;fontColor=default;curved=0;" parent="77e6c97f196da883-1" source="gTiBbDLUTEHt-P025S_j-37" target="gTiBbDLUTEHt-P025S_j-105" edge="1">
          <mxGeometry relative="1" as="geometry" />
        </mxCell>
        <mxCell id="gTiBbDLUTEHt-P025S_j-107" style="edgeStyle=orthogonalEdgeStyle;rounded=1;orthogonalLoop=1;jettySize=auto;html=1;entryX=1;entryY=0.5;entryDx=0;entryDy=0;entryPerimeter=0;fontFamily=Helvetica;fontSize=12;fontColor=default;exitX=0.4;exitY=0.983;exitDx=0;exitDy=0;exitPerimeter=0;curved=0;" parent="77e6c97f196da883-1" source="gTiBbDLUTEHt-P025S_j-40" target="gTiBbDLUTEHt-P025S_j-105" edge="1">
          <mxGeometry relative="1" as="geometry" />
        </mxCell>
        <mxCell id="gTiBbDLUTEHt-P025S_j-160" value="Normal Images Request flow" style="swimlane;html=1;childLayout=stackLayout;startSize=20;rounded=0;shadow=0;labelBackgroundColor=none;strokeWidth=1;fontFamily=Verdana;fontSize=8;align=center;" parent="1" vertex="1">
          <mxGeometry x="11" y="1180" width="806" height="980" as="geometry" />
        </mxCell>
        <mxCell id="gTiBbDLUTEHt-P025S_j-161" value="Browser" style="swimlane;html=1;startSize=20;" parent="gTiBbDLUTEHt-P025S_j-160" vertex="1">
          <mxGeometry y="20" width="166" height="960" as="geometry" />
        </mxCell>
        <mxCell id="gTiBbDLUTEHt-P025S_j-162" value="&lt;span style=&quot;font-family: Verdana; font-size: 8px;&quot;&gt;Page request&amp;nbsp;&lt;/span&gt;&lt;div&gt;&lt;span style=&quot;font-family: Verdana; font-size: 8px;&quot;&gt;to DEV&lt;/span&gt;&lt;/div&gt;" style="strokeWidth=2;html=1;shape=mxgraph.flowchart.start_2;whiteSpace=wrap;" parent="gTiBbDLUTEHt-P025S_j-161" vertex="1">
          <mxGeometry x="41.5" y="56" width="77" height="77" as="geometry" />
        </mxCell>
        <mxCell id="gTiBbDLUTEHt-P025S_j-163" style="edgeStyle=orthogonalEdgeStyle;rounded=0;orthogonalLoop=1;jettySize=auto;html=1;entryX=0.5;entryY=0;entryDx=0;entryDy=0;fontFamily=Helvetica;fontSize=12;fontColor=default;" parent="gTiBbDLUTEHt-P025S_j-161" source="gTiBbDLUTEHt-P025S_j-164" target="gTiBbDLUTEHt-P025S_j-166" edge="1">
          <mxGeometry relative="1" as="geometry" />
        </mxCell>
        <mxCell id="gTiBbDLUTEHt-P025S_j-164" value="HTML" style="strokeWidth=2;html=1;shape=mxgraph.flowchart.document2;whiteSpace=wrap;size=0.25;" parent="gTiBbDLUTEHt-P025S_j-161" vertex="1">
          <mxGeometry x="30" y="236" width="100" height="60" as="geometry" />
        </mxCell>
        <mxCell id="gTiBbDLUTEHt-P025S_j-165" value="" style="group" parent="gTiBbDLUTEHt-P025S_j-161" vertex="1" connectable="0">
          <mxGeometry x="11" y="330" width="140" height="70" as="geometry" />
        </mxCell>
        <mxCell id="gTiBbDLUTEHt-P025S_j-166" value="" style="verticalLabelPosition=bottom;verticalAlign=top;html=1;shape=hexagon;perimeter=hexagonPerimeter2;arcSize=6;size=0.27;pointerEvents=0;align=center;fontFamily=Helvetica;fontSize=12;fontColor=default;fillColor=none;gradientColor=none;" parent="gTiBbDLUTEHt-P025S_j-165" vertex="1">
          <mxGeometry x="-1" width="140" height="70" as="geometry" />
        </mxCell>
        <mxCell id="gTiBbDLUTEHt-P025S_j-167" value="&lt;div&gt;&lt;span style=&quot;background-color: initial;&quot;&gt;Parse DOM&lt;/span&gt;&lt;br&gt;&lt;/div&gt;&lt;div&gt;&amp;amp; Hydrate&lt;/div&gt;" style="whiteSpace=wrap;html=1;pointerEvents=0;align=center;verticalAlign=top;fontFamily=Helvetica;fontSize=12;fontColor=default;fillColor=none;gradientColor=none;strokeColor=none;" parent="gTiBbDLUTEHt-P025S_j-165" vertex="1">
          <mxGeometry x="29" y="15" width="80" height="40" as="geometry" />
        </mxCell>
        <mxCell id="gTiBbDLUTEHt-P025S_j-169" value="" style="group;rounded=1;" parent="gTiBbDLUTEHt-P025S_j-161" vertex="1" connectable="0">
          <mxGeometry x="6" y="440" width="150" height="90" as="geometry" />
        </mxCell>
        <mxCell id="gTiBbDLUTEHt-P025S_j-170" value="" style="whiteSpace=wrap;html=1;verticalAlign=top;fillColor=none;arcSize=6;pointerEvents=0;gradientColor=none;" parent="gTiBbDLUTEHt-P025S_j-169" vertex="1">
          <mxGeometry x="-1" width="150" height="90" as="geometry" />
        </mxCell>
        <mxCell id="gTiBbDLUTEHt-P025S_j-171" value="&lt;span style=&quot;color: rgb(0, 0, 0); font-family: Helvetica; font-size: 12px; font-style: normal; font-variant-ligatures: normal; font-variant-caps: normal; font-weight: 400; letter-spacing: normal; orphans: 2; text-align: left; text-indent: 0px; text-transform: none; widows: 2; word-spacing: 0px; -webkit-text-stroke-width: 0px; white-space: nowrap; background-color: rgb(251, 251, 251); text-decoration-thickness: initial; text-decoration-style: initial; text-decoration-color: initial; display: inline !important; float: none;&quot;&gt;&amp;lt;ResponsiveImage&lt;/span&gt;&lt;div style=&quot;forced-color-adjust: none; color: rgb(0, 0, 0); font-family: Helvetica; font-size: 12px; font-style: normal; font-variant-ligatures: normal; font-variant-caps: normal; font-weight: 400; letter-spacing: normal; orphans: 2; text-align: left; text-indent: 0px; text-transform: none; widows: 2; word-spacing: 0px; -webkit-text-stroke-width: 0px; white-space: nowrap; background-color: rgb(251, 251, 251); text-decoration-thickness: initial; text-decoration-style: initial; text-decoration-color: initial;&quot;&gt;&amp;nbsp; &amp;nbsp;options={inlineSVG} /&amp;gt;&lt;/div&gt;&lt;div style=&quot;forced-color-adjust: none; color: rgb(0, 0, 0); font-family: Helvetica; font-size: 12px; font-style: normal; font-variant-ligatures: normal; font-variant-caps: normal; font-weight: 400; letter-spacing: normal; orphans: 2; text-align: left; text-indent: 0px; text-transform: none; widows: 2; word-spacing: 0px; -webkit-text-stroke-width: 0px; white-space: nowrap; background-color: rgb(251, 251, 251); text-decoration-thickness: initial; text-decoration-style: initial; text-decoration-color: initial;&quot;&gt;&lt;br&gt;&lt;/div&gt;&lt;div style=&quot;text-align: center; forced-color-adjust: none; color: rgb(0, 0, 0); font-family: Helvetica; font-size: 12px; font-style: normal; font-variant-ligatures: normal; font-variant-caps: normal; font-weight: 400; letter-spacing: normal; orphans: 2; text-indent: 0px; text-transform: none; widows: 2; word-spacing: 0px; -webkit-text-stroke-width: 0px; white-space: nowrap; background-color: rgb(251, 251, 251); text-decoration-thickness: initial; text-decoration-style: initial; text-decoration-color: initial;&quot;&gt;Fetch via AJAX&lt;/div&gt;" style="text;whiteSpace=wrap;html=1;fontFamily=Helvetica;fontSize=12;fontColor=default;" parent="gTiBbDLUTEHt-P025S_j-169" vertex="1">
          <mxGeometry x="9" y="10" width="130" height="40" as="geometry" />
        </mxCell>
        <mxCell id="gTiBbDLUTEHt-P025S_j-172" value="Rendered page" style="strokeWidth=2;html=1;shape=mxgraph.flowchart.display;whiteSpace=wrap;pointerEvents=0;align=center;verticalAlign=middle;fontFamily=Helvetica;fontSize=12;fontColor=default;fillColor=none;gradientColor=none;" parent="gTiBbDLUTEHt-P025S_j-161" vertex="1">
          <mxGeometry x="33" y="770" width="100" height="60" as="geometry" />
        </mxCell>
        <mxCell id="gTiBbDLUTEHt-P025S_j-173" value="END" style="strokeWidth=2;html=1;shape=mxgraph.flowchart.terminator;whiteSpace=wrap;rounded=1;shadow=0;align=center;verticalAlign=middle;fontFamily=Verdana;fontSize=8;fontColor=default;fontStyle=1;labelBackgroundColor=none;fillColor=default;" parent="gTiBbDLUTEHt-P025S_j-161" vertex="1">
          <mxGeometry x="51.5" y="882.2" width="63" height="37.8" as="geometry" />
        </mxCell>
        <mxCell id="gTiBbDLUTEHt-P025S_j-174" style="edgeStyle=orthogonalEdgeStyle;rounded=1;orthogonalLoop=1;jettySize=auto;html=1;exitX=0.5;exitY=1;exitDx=0;exitDy=0;exitPerimeter=0;entryX=0.5;entryY=0;entryDx=0;entryDy=0;entryPerimeter=0;fontFamily=Verdana;fontSize=8;fontColor=default;fontStyle=1;labelBackgroundColor=none;" parent="gTiBbDLUTEHt-P025S_j-161" source="gTiBbDLUTEHt-P025S_j-172" target="gTiBbDLUTEHt-P025S_j-173" edge="1">
          <mxGeometry relative="1" as="geometry" />
        </mxCell>
        <mxCell id="gTiBbDLUTEHt-P025S_j-206" style="edgeStyle=orthogonalEdgeStyle;rounded=1;orthogonalLoop=1;jettySize=auto;html=1;entryX=0.5;entryY=0;entryDx=0;entryDy=0;fontFamily=Verdana;fontSize=8;fontColor=default;fontStyle=1;labelBackgroundColor=none;" parent="gTiBbDLUTEHt-P025S_j-161" source="gTiBbDLUTEHt-P025S_j-166" target="gTiBbDLUTEHt-P025S_j-170" edge="1">
          <mxGeometry relative="1" as="geometry" />
        </mxCell>
        <mxCell id="gTiBbDLUTEHt-P025S_j-208" value="Embed returned SVG&lt;div&gt;in HTML doc&lt;/div&gt;" style="rounded=1;whiteSpace=wrap;html=1;absoluteArcSize=1;arcSize=14;strokeWidth=2;shadow=0;align=center;verticalAlign=middle;fontFamily=Verdana;fontSize=8;fontColor=default;fontStyle=1;labelBackgroundColor=none;fillColor=default;" parent="gTiBbDLUTEHt-P025S_j-161" vertex="1">
          <mxGeometry x="28" y="680" width="110" height="50" as="geometry" />
        </mxCell>
        <mxCell id="gTiBbDLUTEHt-P025S_j-211" style="edgeStyle=orthogonalEdgeStyle;rounded=1;orthogonalLoop=1;jettySize=auto;html=1;entryX=0.5;entryY=0;entryDx=0;entryDy=0;entryPerimeter=0;fontFamily=Verdana;fontSize=8;fontColor=default;fontStyle=1;labelBackgroundColor=none;" parent="gTiBbDLUTEHt-P025S_j-161" source="gTiBbDLUTEHt-P025S_j-208" target="gTiBbDLUTEHt-P025S_j-172" edge="1">
          <mxGeometry relative="1" as="geometry" />
        </mxCell>
        <mxCell id="gTiBbDLUTEHt-P025S_j-175" value="Frontdoor" style="swimlane;html=1;startSize=20;" parent="gTiBbDLUTEHt-P025S_j-160" vertex="1">
          <mxGeometry x="166" y="20" width="160" height="960" as="geometry" />
        </mxCell>
        <mxCell id="gTiBbDLUTEHt-P025S_j-176" value="Rewrite to&amp;nbsp;&lt;div&gt;Rendering DEV&lt;/div&gt;" style="rounded=1;whiteSpace=wrap;html=1;shadow=0;labelBackgroundColor=none;strokeWidth=1;fontFamily=Verdana;fontSize=8;align=center;" parent="gTiBbDLUTEHt-P025S_j-175" vertex="1">
          <mxGeometry x="30" y="64.5" width="100" height="60" as="geometry" />
        </mxCell>
        <mxCell id="gTiBbDLUTEHt-P025S_j-177" value="Rewrite to&amp;nbsp;&lt;div&gt;Rendering DEV&lt;/div&gt;" style="rounded=1;whiteSpace=wrap;html=1;shadow=0;labelBackgroundColor=none;strokeWidth=1;fontFamily=Verdana;fontSize=8;align=center;" parent="gTiBbDLUTEHt-P025S_j-175" vertex="1">
          <mxGeometry x="30" y="455" width="100" height="60" as="geometry" />
        </mxCell>
        <mxCell id="gTiBbDLUTEHt-P025S_j-178" value="Media CDN Image" style="strokeWidth=2;html=1;shape=mxgraph.flowchart.document2;whiteSpace=wrap;size=0.25;" parent="gTiBbDLUTEHt-P025S_j-175" vertex="1">
          <mxGeometry x="30" y="580" width="100" height="60" as="geometry" />
        </mxCell>
        <mxCell id="gTiBbDLUTEHt-P025S_j-179" value="Rendering" style="swimlane;html=1;startSize=20;" parent="gTiBbDLUTEHt-P025S_j-160" vertex="1">
          <mxGeometry x="326" y="20" width="160" height="960" as="geometry" />
        </mxCell>
        <mxCell id="gTiBbDLUTEHt-P025S_j-180" value="[[...path]].tsx:&lt;div&gt;getServerSideProps()&lt;/div&gt;" style="rounded=1;whiteSpace=wrap;html=1;shadow=0;labelBackgroundColor=none;strokeWidth=1;fontFamily=Verdana;fontSize=8;align=center;verticalAlign=top;" parent="gTiBbDLUTEHt-P025S_j-179" vertex="1">
          <mxGeometry x="30" y="64.5" width="100" height="141.5" as="geometry" />
        </mxCell>
        <mxCell id="gTiBbDLUTEHt-P025S_j-181" value="URLS to SVGs come from LS" style="ellipse;whiteSpace=wrap;html=1;align=center;newEdgeStyle={&quot;edgeStyle&quot;:&quot;entityRelationEdgeStyle&quot;,&quot;startArrow&quot;:&quot;none&quot;,&quot;endArrow&quot;:&quot;none&quot;,&quot;segment&quot;:10,&quot;curved&quot;:1,&quot;sourcePerimeterSpacing&quot;:0,&quot;targetPerimeterSpacing&quot;:0};treeFolding=1;treeMoving=1;fillColor=#e1d5e7;strokeColor=#9673a6;" parent="gTiBbDLUTEHt-P025S_j-179" vertex="1">
          <mxGeometry x="40" y="116" width="80" height="60" as="geometry" />
        </mxCell>
        <mxCell id="gTiBbDLUTEHt-P025S_j-182" style="edgeStyle=orthogonalEdgeStyle;rounded=0;orthogonalLoop=1;jettySize=auto;html=1;entryX=-0.026;entryY=0.503;entryDx=0;entryDy=0;entryPerimeter=0;fillColor=#ffe6cc;strokeColor=#d79b00;" parent="gTiBbDLUTEHt-P025S_j-179" edge="1">
          <mxGeometry relative="1" as="geometry">
            <mxPoint x="130" y="166" as="sourcePoint" />
            <mxPoint x="187.39999999999998" y="166.36450000000002" as="targetPoint" />
          </mxGeometry>
        </mxCell>
        <mxCell id="gTiBbDLUTEHt-P025S_j-183" value="lang" style="edgeLabel;html=1;align=center;verticalAlign=middle;resizable=0;points=[];" parent="gTiBbDLUTEHt-P025S_j-182" vertex="1" connectable="0">
          <mxGeometry x="0.0015" relative="1" as="geometry">
            <mxPoint as="offset" />
          </mxGeometry>
        </mxCell>
        <mxCell id="gTiBbDLUTEHt-P025S_j-184" style="edgeStyle=orthogonalEdgeStyle;rounded=0;orthogonalLoop=1;jettySize=auto;html=1;exitX=0;exitY=0.75;exitDx=0;exitDy=0;entryX=1.024;entryY=0.75;entryDx=0;entryDy=0;entryPerimeter=0;fillColor=#ffe6cc;strokeColor=#d79b00;" parent="gTiBbDLUTEHt-P025S_j-179" edge="1">
          <mxGeometry relative="1" as="geometry">
            <mxPoint x="187.60000000000002" y="185.995" as="sourcePoint" />
            <mxPoint x="130" y="185.995" as="targetPoint" />
          </mxGeometry>
        </mxCell>
        <mxCell id="gTiBbDLUTEHt-P025S_j-185" value="dict" style="edgeLabel;html=1;align=center;verticalAlign=middle;resizable=0;points=[];" parent="gTiBbDLUTEHt-P025S_j-184" vertex="1" connectable="0">
          <mxGeometry x="-0.005" y="-1" relative="1" as="geometry">
            <mxPoint as="offset" />
          </mxGeometry>
        </mxCell>
        <mxCell id="gTiBbDLUTEHt-P025S_j-186" value="Rewrite?" style="strokeWidth=2;html=1;shape=mxgraph.flowchart.decision;whiteSpace=wrap;" parent="gTiBbDLUTEHt-P025S_j-179" vertex="1">
          <mxGeometry x="30" y="435" width="100" height="100" as="geometry" />
        </mxCell>
        <mxCell id="gTiBbDLUTEHt-P025S_j-187" value="CD" style="swimlane;html=1;startSize=20;" parent="gTiBbDLUTEHt-P025S_j-160" vertex="1">
          <mxGeometry x="486" y="20" width="160" height="960" as="geometry" />
        </mxCell>
        <mxCell id="gTiBbDLUTEHt-P025S_j-188" value="LayoutService" style="rounded=1;whiteSpace=wrap;html=1;absoluteArcSize=1;arcSize=14;strokeWidth=2;" parent="gTiBbDLUTEHt-P025S_j-187" vertex="1">
          <mxGeometry x="30" y="64.5" width="100" height="141.5" as="geometry" />
        </mxCell>
        <mxCell id="gTiBbDLUTEHt-P025S_j-189" style="edgeStyle=orthogonalEdgeStyle;rounded=1;orthogonalLoop=1;jettySize=auto;html=1;exitX=0;exitY=0.37;exitDx=0;exitDy=0;entryX=1;entryY=0.5;entryDx=0;entryDy=0;exitPerimeter=0;fillColor=#dae8fc;strokeColor=#6c8ebf;fontColor=#6C8EBF;curved=0;" parent="gTiBbDLUTEHt-P025S_j-187" target="gTiBbDLUTEHt-P025S_j-181" edge="1">
          <mxGeometry relative="1" as="geometry">
            <mxPoint x="30" y="124.96499999999999" as="sourcePoint" />
            <mxPoint x="-30.5" y="125.53150000000001" as="targetPoint" />
          </mxGeometry>
        </mxCell>
        <mxCell id="gTiBbDLUTEHt-P025S_j-190" value="props" style="edgeLabel;html=1;align=center;verticalAlign=middle;resizable=0;points=[];" parent="gTiBbDLUTEHt-P025S_j-189" vertex="1" connectable="0">
          <mxGeometry x="-0.0074" relative="1" as="geometry">
            <mxPoint as="offset" />
          </mxGeometry>
        </mxCell>
        <mxCell id="gTiBbDLUTEHt-P025S_j-191" value="Sitecore Image" style="strokeWidth=2;html=1;shape=mxgraph.flowchart.document2;whiteSpace=wrap;size=0.25;" parent="gTiBbDLUTEHt-P025S_j-187" vertex="1">
          <mxGeometry x="30" y="455" width="100" height="60" as="geometry" />
        </mxCell>
        <mxCell id="gTiBbDLUTEHt-P025S_j-192" value="CM" style="swimlane;html=1;startSize=20;" parent="gTiBbDLUTEHt-P025S_j-160" vertex="1">
          <mxGeometry x="646" y="20" width="160" height="960" as="geometry" />
        </mxCell>
        <mxCell id="gTiBbDLUTEHt-P025S_j-193" style="edgeStyle=orthogonalEdgeStyle;rounded=0;orthogonalLoop=1;jettySize=auto;html=1;entryX=0;entryY=0.5;entryDx=0;entryDy=0;" parent="gTiBbDLUTEHt-P025S_j-160" source="gTiBbDLUTEHt-P025S_j-162" target="gTiBbDLUTEHt-P025S_j-176" edge="1">
          <mxGeometry relative="1" as="geometry" />
        </mxCell>
        <mxCell id="gTiBbDLUTEHt-P025S_j-194" style="edgeStyle=orthogonalEdgeStyle;rounded=0;orthogonalLoop=1;jettySize=auto;html=1;entryX=0;entryY=0.5;entryDx=0;entryDy=0;curved=1;" parent="gTiBbDLUTEHt-P025S_j-160" source="gTiBbDLUTEHt-P025S_j-176" target="gTiBbDLUTEHt-P025S_j-180" edge="1">
          <mxGeometry relative="1" as="geometry" />
        </mxCell>
        <mxCell id="gTiBbDLUTEHt-P025S_j-195" style="edgeStyle=orthogonalEdgeStyle;rounded=0;orthogonalLoop=1;jettySize=auto;html=1;entryX=0;entryY=0.25;entryDx=0;entryDy=0;exitX=0.997;exitY=0.121;exitDx=0;exitDy=0;fillColor=#dae8fc;strokeColor=#6c8ebf;exitPerimeter=0;" parent="gTiBbDLUTEHt-P025S_j-160" source="gTiBbDLUTEHt-P025S_j-180" target="gTiBbDLUTEHt-P025S_j-188" edge="1">
          <mxGeometry relative="1" as="geometry" />
        </mxCell>
        <mxCell id="gTiBbDLUTEHt-P025S_j-196" value="route" style="edgeLabel;html=1;align=center;verticalAlign=middle;resizable=0;points=[];" parent="gTiBbDLUTEHt-P025S_j-195" vertex="1" connectable="0">
          <mxGeometry x="-0.3509" y="-1" relative="1" as="geometry">
            <mxPoint x="10" y="-1" as="offset" />
          </mxGeometry>
        </mxCell>
        <mxCell id="gTiBbDLUTEHt-P025S_j-197" style="edgeStyle=orthogonalEdgeStyle;rounded=1;orthogonalLoop=1;jettySize=auto;html=1;entryX=1;entryY=0.5;entryDx=0;entryDy=0;entryPerimeter=0;exitX=0.5;exitY=1;exitDx=0;exitDy=0;curved=0;" parent="gTiBbDLUTEHt-P025S_j-160" source="gTiBbDLUTEHt-P025S_j-180" target="gTiBbDLUTEHt-P025S_j-164" edge="1">
          <mxGeometry relative="1" as="geometry" />
        </mxCell>
        <mxCell id="gTiBbDLUTEHt-P025S_j-198" style="edgeStyle=orthogonalEdgeStyle;rounded=0;orthogonalLoop=1;jettySize=auto;html=1;entryX=0;entryY=0.5;entryDx=0;entryDy=0;entryPerimeter=0;" parent="gTiBbDLUTEHt-P025S_j-160" source="gTiBbDLUTEHt-P025S_j-177" target="gTiBbDLUTEHt-P025S_j-186" edge="1">
          <mxGeometry relative="1" as="geometry" />
        </mxCell>
        <mxCell id="gTiBbDLUTEHt-P025S_j-199" style="edgeStyle=orthogonalEdgeStyle;rounded=1;orthogonalLoop=1;jettySize=auto;html=1;entryX=1;entryY=0.5;entryDx=0;entryDy=0;entryPerimeter=0;exitX=0.5;exitY=1;exitDx=0;exitDy=0;exitPerimeter=0;curved=0;" parent="gTiBbDLUTEHt-P025S_j-160" source="gTiBbDLUTEHt-P025S_j-186" target="gTiBbDLUTEHt-P025S_j-178" edge="1">
          <mxGeometry relative="1" as="geometry" />
        </mxCell>
        <mxCell id="gTiBbDLUTEHt-P025S_j-200" value="Yes" style="edgeLabel;html=1;align=center;verticalAlign=middle;resizable=0;points=[];" parent="gTiBbDLUTEHt-P025S_j-199" vertex="1" connectable="0">
          <mxGeometry x="-0.1243" relative="1" as="geometry">
            <mxPoint x="-21" as="offset" />
          </mxGeometry>
        </mxCell>
        <mxCell id="gTiBbDLUTEHt-P025S_j-201" style="edgeStyle=orthogonalEdgeStyle;rounded=0;orthogonalLoop=1;jettySize=auto;html=1;entryX=0;entryY=0.5;entryDx=0;entryDy=0;entryPerimeter=0;" parent="gTiBbDLUTEHt-P025S_j-160" source="gTiBbDLUTEHt-P025S_j-186" target="gTiBbDLUTEHt-P025S_j-191" edge="1">
          <mxGeometry relative="1" as="geometry" />
        </mxCell>
        <mxCell id="gTiBbDLUTEHt-P025S_j-202" value="No" style="edgeLabel;html=1;align=center;verticalAlign=middle;resizable=0;points=[];" parent="gTiBbDLUTEHt-P025S_j-201" vertex="1" connectable="0">
          <mxGeometry x="-0.3667" y="-1" relative="1" as="geometry">
            <mxPoint as="offset" />
          </mxGeometry>
        </mxCell>
        <mxCell id="gTiBbDLUTEHt-P025S_j-203" style="edgeStyle=orthogonalEdgeStyle;rounded=0;orthogonalLoop=1;jettySize=auto;html=1;exitX=1;exitY=0.5;exitDx=0;exitDy=0;entryX=0;entryY=0.5;entryDx=0;entryDy=0;fontFamily=Helvetica;fontSize=12;fontColor=default;" parent="gTiBbDLUTEHt-P025S_j-160" source="gTiBbDLUTEHt-P025S_j-170" target="gTiBbDLUTEHt-P025S_j-177" edge="1">
          <mxGeometry relative="1" as="geometry" />
        </mxCell>
        <mxCell id="gTiBbDLUTEHt-P025S_j-209" style="edgeStyle=orthogonalEdgeStyle;rounded=1;orthogonalLoop=1;jettySize=auto;html=1;entryX=0.5;entryY=0;entryDx=0;entryDy=0;fontFamily=Verdana;fontSize=8;fontColor=default;fontStyle=1;labelBackgroundColor=none;" parent="gTiBbDLUTEHt-P025S_j-160" source="gTiBbDLUTEHt-P025S_j-178" target="gTiBbDLUTEHt-P025S_j-208" edge="1">
          <mxGeometry relative="1" as="geometry" />
        </mxCell>
        <mxCell id="gTiBbDLUTEHt-P025S_j-210" style="edgeStyle=orthogonalEdgeStyle;rounded=1;orthogonalLoop=1;jettySize=auto;html=1;entryX=1;entryY=0.5;entryDx=0;entryDy=0;fontFamily=Verdana;fontSize=8;fontColor=default;fontStyle=1;labelBackgroundColor=none;exitX=0.4;exitY=0.983;exitDx=0;exitDy=0;exitPerimeter=0;" parent="gTiBbDLUTEHt-P025S_j-160" source="gTiBbDLUTEHt-P025S_j-191" target="gTiBbDLUTEHt-P025S_j-208" edge="1">
          <mxGeometry relative="1" as="geometry" />
        </mxCell>
      </root>
    </mxGraphModel>
  </diagram>
</mxfile>
